<svg width="388" height="72" viewBox="0 0 388 72" fill="none" xmlns="http://www.w3.org/2000/svg">
<g clip-path="url(#clip0_1_1179)">
<path d="M191.119 54.6022C191.119 55.0211 191.053 55.3903 190.925 55.7138C190.797 56.0373 190.607 56.307 190.36 56.5309C190.112 56.7508 189.807 56.9209 189.448 57.0329C189.089 57.149 188.665 57.2071 188.174 57.2071H187.555V59.588C187.555 59.6253 187.543 59.6626 187.518 59.6917C187.493 59.7207 187.452 59.7456 187.394 59.7663C187.336 59.7871 187.262 59.7995 187.163 59.812C187.068 59.8244 186.945 59.8286 186.796 59.8286C186.648 59.8286 186.528 59.8244 186.433 59.812C186.334 59.7995 186.26 59.7829 186.202 59.7663C186.144 59.7456 186.103 59.7207 186.082 59.6917C186.058 59.6626 186.049 59.6253 186.049 59.588V52.8808C186.049 52.7024 186.095 52.5655 186.19 52.4743C186.285 52.383 186.408 52.3374 186.561 52.3374H188.31C188.487 52.3374 188.652 52.3457 188.809 52.3581C188.966 52.3706 189.155 52.3996 189.378 52.4452C189.601 52.4909 189.824 52.5697 190.051 52.69C190.277 52.8103 190.471 52.9596 190.632 53.1421C190.793 53.3246 190.913 53.5362 190.999 53.7809C191.082 54.0256 191.127 54.2994 191.127 54.6022H191.119ZM189.543 54.71C189.543 54.4487 189.498 54.233 189.407 54.0671C189.316 53.897 189.201 53.7726 189.069 53.6938C188.937 53.6108 188.797 53.561 188.648 53.5403C188.5 53.5196 188.351 53.5071 188.194 53.5071H187.551V56.0374H188.227C188.467 56.0374 188.669 56.0042 188.83 55.9378C188.99 55.8714 189.122 55.7802 189.226 55.664C189.329 55.5479 189.407 55.4069 189.461 55.2409C189.514 55.0792 189.539 54.9008 189.539 54.71H189.543Z" fill="#323638"/>
<path d="M196.741 59.1981C196.741 59.3101 196.737 59.4013 196.729 59.476C196.72 59.5506 196.704 59.6129 196.687 59.6585C196.667 59.7041 196.646 59.7373 196.617 59.758C196.588 59.7788 196.555 59.7912 196.522 59.7912H192.798C192.67 59.7912 192.567 59.7539 192.48 59.6792C192.393 59.6046 192.352 59.4843 192.352 59.3142V52.8144C192.352 52.6443 192.393 52.5241 192.48 52.4494C192.567 52.3747 192.674 52.3374 192.798 52.3374H196.498C196.531 52.3374 196.564 52.3457 196.588 52.3664C196.613 52.3872 196.638 52.4204 196.658 52.466C196.679 52.5116 196.691 52.5738 196.7 52.6485C196.708 52.7232 196.712 52.8186 196.712 52.9347C196.712 53.0426 196.708 53.1338 196.7 53.2085C196.691 53.2831 196.675 53.3453 196.658 53.391C196.642 53.4366 196.617 53.4698 196.588 53.4905C196.564 53.5113 196.531 53.5237 196.498 53.5237H193.849V55.3446H196.089C196.122 55.3446 196.155 55.3571 196.184 55.3778C196.213 55.3986 196.238 55.4318 196.254 55.4774C196.275 55.523 196.287 55.5811 196.296 55.6557C196.304 55.7304 196.308 55.8217 196.308 55.9295C196.308 56.0373 196.304 56.1328 196.296 56.2074C196.287 56.2821 196.271 56.3401 196.254 56.3816C196.234 56.4273 196.213 56.4563 196.184 56.477C196.155 56.4978 196.122 56.5061 196.089 56.5061H193.849V58.6091H196.518C196.551 58.6091 196.584 58.6215 196.613 58.6422C196.642 58.663 196.667 58.6962 196.683 58.7418C196.704 58.7874 196.716 58.8496 196.724 58.9243C196.733 58.999 196.737 59.0902 196.737 59.2022L196.741 59.1981Z" fill="#323638"/>
<path d="M202.573 57.6301C202.573 58.0075 202.503 58.3394 202.363 58.6256C202.223 58.9118 202.021 59.1524 201.757 59.3473C201.497 59.5423 201.183 59.6875 200.816 59.7829C200.453 59.8783 200.049 59.928 199.604 59.928C199.36 59.928 199.133 59.9114 198.931 59.8741C198.729 59.8368 198.548 59.7953 198.399 59.7455C198.246 59.6957 198.127 59.6418 198.036 59.592C197.945 59.5423 197.879 59.5008 197.842 59.4676C197.805 59.4344 197.776 59.4012 197.756 59.3681C197.735 59.3349 197.723 59.2851 197.71 59.2229C197.698 59.1607 197.69 59.0819 197.686 58.9823C197.681 58.8869 197.677 58.7666 197.677 58.6256C197.677 58.4638 197.69 58.356 197.718 58.302C197.747 58.2481 197.789 58.2191 197.846 58.2191C197.892 58.2191 197.958 58.244 198.04 58.2896C198.123 58.3352 198.23 58.3933 198.362 58.4555C198.494 58.5177 198.647 58.5717 198.832 58.6214C199.014 58.6712 199.232 58.6961 199.48 58.6961C199.686 58.6961 199.872 58.6712 200.041 58.6214C200.21 58.5717 200.35 58.5011 200.466 58.4099C200.581 58.3186 200.672 58.2066 200.738 58.0781C200.804 57.9495 200.837 57.8084 200.837 57.6508C200.837 57.4766 200.808 57.3231 200.746 57.1821C200.684 57.0411 200.593 56.9249 200.47 56.8295C200.342 56.7341 200.185 56.6595 199.991 56.6097C199.797 56.5558 199.566 56.5309 199.294 56.5309H198.51C198.453 56.5309 198.407 56.5226 198.374 56.506C198.341 56.4894 198.312 56.4645 198.292 56.4189C198.271 56.3774 198.259 56.3193 198.251 56.2447C198.246 56.17 198.242 56.0705 198.242 55.9502C198.242 55.8382 198.242 55.7469 198.255 55.6764C198.263 55.6059 198.275 55.5478 198.296 55.5063C198.317 55.4649 198.345 55.4358 198.374 55.4151C198.407 55.3985 198.444 55.3902 198.49 55.3902H199.286C199.517 55.3902 199.723 55.3653 199.905 55.3197C200.086 55.2741 200.235 55.2035 200.354 55.1164C200.474 55.0252 200.565 54.9173 200.631 54.7888C200.692 54.6602 200.725 54.515 200.725 54.3491C200.725 54.2122 200.705 54.0836 200.659 53.9675C200.614 53.8513 200.548 53.7559 200.457 53.6771C200.367 53.5983 200.251 53.5361 200.107 53.4905C199.962 53.4448 199.797 53.4241 199.604 53.4241C199.373 53.4241 199.166 53.449 198.985 53.4987C198.803 53.5485 198.642 53.6024 198.506 53.6605C198.37 53.7186 198.255 53.7725 198.164 53.8264C198.069 53.8762 197.999 53.9052 197.954 53.9052C197.929 53.9052 197.904 53.897 197.883 53.8804C197.863 53.8638 197.846 53.8389 197.834 53.7974C197.822 53.7559 197.809 53.702 197.801 53.6315C197.797 53.561 197.793 53.4739 197.793 53.3619C197.793 53.2831 197.793 53.2125 197.797 53.1503C197.801 53.0881 197.809 53.0259 197.822 52.972C197.834 52.918 197.846 52.8724 197.867 52.8309C197.888 52.7895 197.916 52.7521 197.958 52.7148C197.999 52.6775 198.081 52.6277 198.205 52.5655C198.329 52.5032 198.482 52.4493 198.659 52.3954C198.836 52.3456 199.043 52.3 199.265 52.2668C199.488 52.2336 199.727 52.217 199.983 52.217C200.379 52.217 200.725 52.2585 201.022 52.3415C201.319 52.4244 201.567 52.5489 201.765 52.7065C201.963 52.8683 202.111 53.0632 202.21 53.2955C202.309 53.5278 202.359 53.7933 202.359 54.0919C202.359 54.3283 202.326 54.5482 202.26 54.7431C202.194 54.9381 202.103 55.1123 201.984 55.2616C201.864 55.4109 201.72 55.5354 201.555 55.6391C201.39 55.7386 201.204 55.8133 201.002 55.8589V55.8714C201.233 55.8962 201.447 55.9626 201.641 56.0663C201.835 56.17 202 56.2986 202.136 56.4562C202.272 56.6138 202.38 56.7922 202.458 56.9955C202.536 57.1987 202.573 57.4144 202.573 57.6425V57.6301Z" fill="#323638"/>
<path d="M209.87 59.5962C209.87 59.6336 209.858 59.6668 209.833 59.6958C209.808 59.7248 209.767 59.7497 209.709 59.7663C209.652 59.7871 209.573 59.7995 209.478 59.8078C209.383 59.8161 209.26 59.8202 209.115 59.8202C208.971 59.8202 208.847 59.8161 208.752 59.8078C208.653 59.7995 208.579 59.7829 208.521 59.7663C208.468 59.7456 208.426 59.7248 208.406 59.6958C208.385 59.6668 208.373 59.6336 208.373 59.5962V55.6682C208.373 55.5188 208.373 55.3737 208.377 55.2285C208.377 55.0833 208.385 54.9589 208.393 54.8469H208.381C208.352 54.9008 208.315 54.963 208.274 55.0335C208.233 55.104 208.187 55.1787 208.138 55.2575C208.088 55.3363 208.039 55.4151 207.985 55.4981C207.932 55.5811 207.878 55.6599 207.824 55.7387L205.246 59.6045C205.217 59.646 205.184 59.6834 205.151 59.7165C205.118 59.7456 205.077 59.7705 205.024 59.7871C204.974 59.8036 204.908 59.8161 204.834 59.8202C204.76 59.8244 204.665 59.8285 204.545 59.8285C204.397 59.8285 204.277 59.8244 204.186 59.8161C204.095 59.8078 204.021 59.7912 203.972 59.7746C203.922 59.758 203.885 59.729 203.864 59.6999C203.844 59.6709 203.836 59.6336 203.836 59.5921V52.5406C203.836 52.5033 203.848 52.4701 203.873 52.4411C203.897 52.412 203.939 52.3872 204.001 52.3706C204.058 52.3498 204.137 52.3374 204.232 52.3291C204.326 52.3208 204.446 52.3166 204.59 52.3166C204.735 52.3166 204.863 52.3208 204.958 52.3291C205.052 52.3374 205.131 52.354 205.189 52.3706C205.246 52.3913 205.287 52.412 205.308 52.4411C205.333 52.4701 205.341 52.5033 205.341 52.5406V56.4936C205.341 56.618 205.341 56.7466 205.337 56.8835C205.337 57.0204 205.329 57.1573 205.32 57.2859H205.333C205.399 57.1697 205.481 57.0328 205.58 56.8711C205.679 56.7093 205.782 56.5517 205.89 56.3982L208.468 52.5323C208.492 52.495 208.521 52.4618 208.554 52.4328C208.583 52.4037 208.624 52.3789 208.678 52.3623C208.732 52.3457 208.794 52.3291 208.872 52.3208C208.95 52.3125 209.045 52.3083 209.165 52.3083C209.309 52.3083 209.429 52.3125 209.515 52.3208C209.606 52.3291 209.676 52.3457 209.73 52.3623C209.784 52.3789 209.821 52.4037 209.841 52.4328C209.862 52.4618 209.874 52.4992 209.874 52.5406V59.5962H209.87Z" fill="#323638"/>
<path d="M218.38 61.5499C218.38 61.5873 218.371 61.6205 218.351 61.6495C218.33 61.6744 218.297 61.6993 218.248 61.7159C218.198 61.7324 218.132 61.749 218.046 61.7573C217.963 61.7656 217.852 61.7698 217.72 61.7698C217.588 61.7698 217.485 61.7656 217.402 61.7573C217.32 61.749 217.254 61.7324 217.2 61.7159C217.151 61.6993 217.113 61.6785 217.093 61.6495C217.072 61.6205 217.06 61.5914 217.06 61.5499V59.7912H212.126V61.5499C212.126 61.5873 212.114 61.6205 212.093 61.6495C212.073 61.6744 212.036 61.6993 211.986 61.7159C211.937 61.7324 211.867 61.749 211.784 61.7573C211.702 61.7656 211.594 61.7698 211.462 61.7698C211.33 61.7698 211.227 61.7656 211.141 61.7573C211.058 61.749 210.988 61.7324 210.939 61.7159C210.889 61.6993 210.852 61.6785 210.831 61.6495C210.811 61.6205 210.802 61.5914 210.802 61.5499V58.8704C210.794 58.7584 210.815 58.6796 210.864 58.6298C210.914 58.58 210.984 58.5593 211.079 58.5593H211.421C211.512 58.4307 211.599 58.2938 211.681 58.1569C211.764 58.0201 211.842 57.8541 211.92 57.6633C211.999 57.4725 212.073 57.2444 212.147 56.9831C212.221 56.7218 212.296 56.3982 212.366 56.0166C212.44 55.635 212.51 55.187 212.584 54.6644C212.659 54.1417 212.737 53.532 212.815 52.831C212.84 52.6568 212.881 52.5324 212.947 52.4535C213.013 52.3747 213.112 52.3374 213.244 52.3374H217.031C217.163 52.3374 217.27 52.3747 217.344 52.4535C217.423 52.5324 217.46 52.6526 217.46 52.8144V58.5593H218.091C218.194 58.5593 218.268 58.5883 218.31 58.6422C218.351 58.6962 218.371 58.775 218.371 58.8745V61.5458L218.38 61.5499ZM215.967 53.561H214.238C214.168 54.1459 214.102 54.6561 214.036 55.0999C213.97 55.5437 213.904 55.9336 213.834 56.2655C213.768 56.5973 213.698 56.8877 213.632 57.1283C213.566 57.3688 213.492 57.5804 213.422 57.7546C213.352 57.9288 213.277 58.0823 213.203 58.2109C213.129 58.3394 213.05 58.4514 212.968 58.5551H215.971V53.5569L215.967 53.561Z" fill="#323638"/>
<path d="M223.89 59.1981C223.89 59.3101 223.886 59.4013 223.878 59.476C223.87 59.5506 223.853 59.6129 223.837 59.6585C223.816 59.7041 223.795 59.7373 223.767 59.758C223.738 59.7788 223.705 59.7912 223.672 59.7912H219.947C219.819 59.7912 219.716 59.7539 219.629 59.6792C219.543 59.6046 219.502 59.4843 219.502 59.3142V52.8144C219.502 52.6443 219.543 52.5241 219.629 52.4494C219.716 52.3747 219.823 52.3374 219.947 52.3374H223.647C223.68 52.3374 223.713 52.3457 223.738 52.3664C223.762 52.3872 223.787 52.4204 223.808 52.466C223.829 52.5116 223.841 52.5738 223.849 52.6485C223.857 52.7232 223.861 52.8186 223.861 52.9347C223.861 53.0426 223.857 53.1338 223.849 53.2085C223.841 53.2831 223.824 53.3453 223.808 53.391C223.791 53.4366 223.767 53.4698 223.738 53.4905C223.713 53.5113 223.68 53.5237 223.647 53.5237H220.999V55.3446H223.239C223.272 55.3446 223.305 55.3571 223.334 55.3778C223.362 55.3986 223.387 55.4318 223.404 55.4774C223.424 55.523 223.437 55.5811 223.445 55.6557C223.453 55.7304 223.457 55.8217 223.457 55.9295C223.457 56.0373 223.453 56.1328 223.445 56.2074C223.437 56.2821 223.42 56.3401 223.404 56.3816C223.383 56.4273 223.362 56.4563 223.334 56.477C223.305 56.4978 223.272 56.5061 223.239 56.5061H220.999V58.6091H223.668C223.701 58.6091 223.734 58.6215 223.762 58.6422C223.791 58.663 223.816 58.6962 223.833 58.7418C223.853 58.7874 223.866 58.8496 223.874 58.9243C223.882 58.999 223.886 59.0902 223.886 59.2022L223.89 59.1981Z" fill="#323638"/>
<path d="M231.063 59.5838C231.063 59.6211 231.051 59.6585 231.026 59.6875C231.002 59.7165 230.96 59.7414 230.903 59.7622C230.845 59.7829 230.771 59.7953 230.672 59.8078C230.577 59.8202 230.457 59.8244 230.313 59.8244C230.168 59.8244 230.041 59.8202 229.942 59.8078C229.843 59.7953 229.768 59.7788 229.711 59.7622C229.657 59.7414 229.616 59.7165 229.591 59.6875C229.566 59.6585 229.554 59.6211 229.554 59.5838V56.5724H226.782V59.5838C226.782 59.6211 226.77 59.6585 226.749 59.6875C226.724 59.7165 226.687 59.7414 226.629 59.7622C226.572 59.7829 226.497 59.7953 226.398 59.8078C226.303 59.8202 226.18 59.8244 226.031 59.8244C225.883 59.8244 225.763 59.8202 225.668 59.8078C225.569 59.7953 225.495 59.7788 225.437 59.7622C225.379 59.7414 225.338 59.7165 225.313 59.6875C225.289 59.6585 225.276 59.6211 225.276 59.5838V52.5448C225.276 52.5074 225.289 52.4743 225.313 52.4411C225.338 52.412 225.379 52.3872 225.437 52.3664C225.495 52.3457 225.573 52.3332 225.668 52.3208C225.763 52.3083 225.887 52.3042 226.031 52.3042C226.176 52.3042 226.303 52.3125 226.398 52.3208C226.493 52.3291 226.572 52.3457 226.629 52.3664C226.687 52.3872 226.728 52.412 226.749 52.4411C226.774 52.4743 226.782 52.5074 226.782 52.5448V55.2824H229.554V52.5448C229.554 52.5074 229.566 52.4743 229.591 52.4411C229.616 52.412 229.657 52.3872 229.711 52.3664C229.764 52.3457 229.843 52.3332 229.942 52.3208C230.041 52.3083 230.16 52.3042 230.313 52.3042C230.465 52.3042 230.577 52.3125 230.672 52.3208C230.766 52.3332 230.845 52.3457 230.903 52.3664C230.96 52.3872 231.002 52.412 231.026 52.4411C231.051 52.4743 231.063 52.5074 231.063 52.5448V59.5838Z" fill="#323638"/>
<path d="M239.396 61.5499C239.396 61.5873 239.387 61.6204 239.367 61.6495C239.346 61.6744 239.313 61.6992 239.268 61.7158C239.218 61.7324 239.152 61.749 239.066 61.7573C238.979 61.7656 238.872 61.7698 238.744 61.7698C238.616 61.7698 238.509 61.7656 238.422 61.7573C238.34 61.749 238.27 61.7324 238.22 61.7158C238.171 61.6992 238.133 61.6785 238.113 61.6495C238.092 61.6204 238.08 61.5914 238.08 61.5499V59.7912H233.175C233.043 59.7912 232.936 59.7539 232.858 59.6751C232.779 59.5962 232.742 59.476 232.742 59.3142V52.5323C232.742 52.495 232.755 52.4618 232.779 52.4328C232.804 52.4037 232.845 52.3789 232.903 52.3623C232.961 52.3415 233.039 52.3291 233.134 52.3208C233.229 52.3125 233.353 52.3083 233.497 52.3083C233.642 52.3083 233.769 52.3125 233.864 52.3208C233.959 52.3291 234.038 52.3457 234.095 52.3623C234.153 52.383 234.194 52.4037 234.215 52.4328C234.24 52.4618 234.248 52.495 234.248 52.5323V58.5344H236.987V52.5323C236.987 52.495 236.999 52.4618 237.024 52.4328C237.049 52.4037 237.09 52.3789 237.148 52.3623C237.205 52.3415 237.284 52.3291 237.379 52.3208C237.478 52.3125 237.597 52.3083 237.742 52.3083C237.886 52.3083 238.014 52.3125 238.109 52.3208C238.204 52.3291 238.282 52.3457 238.34 52.3623C238.397 52.383 238.439 52.4037 238.459 52.4328C238.484 52.4618 238.492 52.495 238.492 52.5323V58.5344H239.144C239.239 58.5344 239.305 58.5551 239.342 58.6007C239.379 58.6464 239.396 58.7252 239.396 58.8455V61.5458V61.5499Z" fill="#323638"/>
<path d="M246.548 59.5962C246.548 59.6336 246.536 59.6668 246.511 59.6958C246.486 59.7248 246.445 59.7497 246.387 59.7663C246.329 59.7871 246.251 59.7995 246.156 59.8078C246.061 59.8161 245.938 59.8202 245.793 59.8202C245.649 59.8202 245.525 59.8161 245.43 59.8078C245.331 59.7995 245.257 59.7829 245.199 59.7663C245.146 59.7456 245.104 59.7248 245.084 59.6958C245.063 59.6668 245.051 59.6336 245.051 59.5962V55.6682C245.051 55.5188 245.051 55.3737 245.055 55.2285C245.055 55.0833 245.063 54.9589 245.071 54.8469H245.059C245.03 54.9008 244.993 54.963 244.952 55.0335C244.91 55.104 244.865 55.1787 244.816 55.2575C244.766 55.3363 244.717 55.4151 244.663 55.4981C244.609 55.5811 244.556 55.6599 244.502 55.7387L241.924 59.6045C241.895 59.646 241.862 59.6834 241.829 59.7165C241.796 59.7456 241.755 59.7705 241.701 59.7871C241.652 59.8036 241.586 59.8161 241.512 59.8202C241.437 59.8244 241.343 59.8285 241.223 59.8285C241.074 59.8285 240.955 59.8244 240.864 59.8161C240.773 59.8078 240.699 59.7912 240.65 59.7746C240.6 59.758 240.563 59.729 240.542 59.6999C240.522 59.6709 240.513 59.6336 240.513 59.5921V52.5406C240.513 52.5033 240.526 52.4701 240.551 52.4411C240.575 52.412 240.617 52.3872 240.678 52.3706C240.736 52.3498 240.815 52.3374 240.909 52.3291C241.004 52.3208 241.124 52.3166 241.268 52.3166C241.413 52.3166 241.54 52.3208 241.635 52.3291C241.73 52.3374 241.809 52.354 241.866 52.3706C241.924 52.3913 241.965 52.412 241.986 52.4411C242.011 52.4701 242.019 52.5033 242.019 52.5406V56.4936C242.019 56.618 242.019 56.7466 242.015 56.8835C242.015 57.0204 242.007 57.1573 241.998 57.2859H242.011C242.077 57.1697 242.159 57.0328 242.258 56.8711C242.357 56.7093 242.46 56.5517 242.568 56.3982L245.146 52.5323C245.17 52.495 245.199 52.4618 245.232 52.4328C245.261 52.4037 245.302 52.3789 245.356 52.3623C245.41 52.3457 245.471 52.3291 245.55 52.3208C245.628 52.3125 245.723 52.3083 245.843 52.3083C245.987 52.3083 246.107 52.3125 246.193 52.3208C246.284 52.3291 246.354 52.3457 246.408 52.3623C246.461 52.3789 246.499 52.4037 246.519 52.4328C246.54 52.4618 246.552 52.4992 246.552 52.5406V59.5962H246.548Z" fill="#323638"/>
<path d="M253.337 59.5963C253.337 59.6336 253.325 59.6668 253.304 59.6958C253.28 59.7249 253.243 59.7497 253.189 59.7663C253.135 59.7871 253.057 59.7995 252.958 59.8078C252.859 59.8161 252.739 59.8203 252.595 59.8203C252.451 59.8203 252.323 59.8161 252.228 59.8078C252.133 59.7995 252.055 59.7829 251.997 59.7663C251.939 59.7456 251.898 59.7249 251.873 59.6958C251.848 59.6668 251.84 59.6336 251.84 59.5963V56.8089H251.283C251.052 56.8089 250.879 56.8338 250.759 56.8794C250.64 56.925 250.533 56.9955 250.438 57.0909C250.343 57.1863 250.26 57.3066 250.19 57.4518C250.116 57.597 250.046 57.767 249.98 57.962L249.419 59.5755C249.398 59.6212 249.373 59.6626 249.345 59.6917C249.316 59.7249 249.266 59.7497 249.204 59.7705C249.142 59.7912 249.06 59.8078 248.957 59.812C248.854 59.8203 248.722 59.8244 248.561 59.8244C248.383 59.8244 248.247 59.8203 248.144 59.8078C248.041 59.7954 247.967 59.7788 247.913 59.758C247.86 59.7373 247.827 59.7124 247.81 59.6875C247.794 59.6626 247.785 59.6336 247.785 59.6004C247.785 59.5631 247.794 59.5133 247.806 59.4594C247.818 59.4055 247.847 59.3184 247.889 59.2105L248.445 57.7463C248.52 57.5555 248.594 57.3854 248.668 57.2444C248.742 57.1034 248.829 56.9748 248.924 56.8628C249.019 56.7508 249.118 56.6554 249.221 56.5766C249.324 56.4978 249.439 56.4397 249.567 56.3899C249.332 56.3236 249.122 56.2406 248.94 56.1328C248.759 56.0291 248.606 55.9005 248.482 55.747C248.359 55.5935 248.264 55.4193 248.202 55.2244C248.14 55.0253 248.107 54.8054 248.107 54.5607C248.107 54.2247 248.165 53.9178 248.28 53.644C248.396 53.3702 248.569 53.138 248.8 52.943C249.031 52.7522 249.316 52.6029 249.658 52.495C250 52.3913 250.475 52.3374 251.085 52.3374H252.9C253.024 52.3374 253.127 52.3747 253.214 52.4494C253.3 52.5241 253.342 52.6443 253.342 52.8144V59.5963H253.337ZM251.836 53.5071H251.065C250.739 53.5071 250.5 53.532 250.339 53.5818C250.178 53.6316 250.046 53.7021 249.947 53.7975C249.848 53.8929 249.774 54.0049 249.728 54.1376C249.683 54.2703 249.658 54.4155 249.658 54.5773C249.658 54.7391 249.683 54.8801 249.732 55.0128C249.782 55.1455 249.86 55.2617 249.963 55.3571C250.066 55.4525 250.198 55.5313 250.359 55.5852C250.52 55.6391 250.747 55.664 251.048 55.664H251.844V53.503L251.836 53.5071Z" fill="#323638"/>
<path d="M264.561 61.5499C264.561 61.5873 264.553 61.6205 264.532 61.6495C264.512 61.6744 264.479 61.6993 264.429 61.7159C264.38 61.7324 264.314 61.749 264.227 61.7573C264.144 61.7656 264.033 61.7698 263.901 61.7698C263.769 61.7698 263.666 61.7656 263.584 61.7573C263.501 61.749 263.435 61.7324 263.381 61.7159C263.332 61.6993 263.295 61.6785 263.274 61.6495C263.254 61.6205 263.241 61.5914 263.241 61.5499V59.7912H258.308V61.5499C258.308 61.5873 258.296 61.6205 258.275 61.6495C258.254 61.6744 258.217 61.6993 258.168 61.7159C258.118 61.7324 258.048 61.749 257.966 61.7573C257.883 61.7656 257.776 61.7698 257.644 61.7698C257.512 61.7698 257.409 61.7656 257.322 61.7573C257.24 61.749 257.169 61.7324 257.12 61.7159C257.07 61.6993 257.033 61.6785 257.013 61.6495C256.992 61.6205 256.984 61.5914 256.984 61.5499V58.8704C256.976 58.7584 256.996 58.6796 257.046 58.6298C257.095 58.58 257.165 58.5593 257.26 58.5593H257.603C257.693 58.4307 257.78 58.2938 257.862 58.1569C257.945 58.0201 258.023 57.8541 258.102 57.6633C258.18 57.4725 258.254 57.2444 258.329 56.9831C258.403 56.7218 258.477 56.3982 258.547 56.0166C258.621 55.635 258.691 55.187 258.766 54.6644C258.84 54.1417 258.918 53.532 258.997 52.831C259.021 52.6568 259.063 52.5324 259.129 52.4535C259.195 52.3747 259.294 52.3374 259.426 52.3374H263.212C263.344 52.3374 263.452 52.3747 263.526 52.4535C263.604 52.5324 263.641 52.6526 263.641 52.8144V58.5593H264.272C264.375 58.5593 264.45 58.5883 264.491 58.6422C264.532 58.6962 264.553 58.775 264.553 58.8745V61.5458L264.561 61.5499ZM262.148 53.561H260.42C260.35 54.1459 260.284 54.6561 260.218 55.0999C260.152 55.5437 260.086 55.9336 260.016 56.2655C259.95 56.5973 259.879 56.8877 259.813 57.1283C259.747 57.3688 259.673 57.5804 259.603 57.7546C259.533 57.9288 259.459 58.0823 259.384 58.2109C259.31 58.3394 259.232 58.4514 259.149 58.5551H262.152V53.5569L262.148 53.561Z" fill="#323638"/>
<path d="M271.437 59.5963C271.437 59.6336 271.425 59.6668 271.404 59.6958C271.379 59.7249 271.342 59.7497 271.284 59.7663C271.227 59.7871 271.148 59.7995 271.053 59.8078C270.959 59.8161 270.835 59.8203 270.691 59.8203C270.546 59.8203 270.418 59.8161 270.323 59.8078C270.229 59.7995 270.15 59.7829 270.092 59.7663C270.035 59.7497 269.993 59.7249 269.973 59.6958C269.952 59.6668 269.94 59.6336 269.94 59.5963V53.5818H268.348C268.24 54.4611 268.133 55.2285 268.022 55.8839C267.91 56.5392 267.791 57.1034 267.667 57.5721C267.543 58.0408 267.403 58.4224 267.25 58.7252C267.098 59.0239 266.929 59.2603 266.735 59.4345C266.541 59.6087 266.322 59.729 266.083 59.7954C265.844 59.8617 265.563 59.8949 265.254 59.8949C265.196 59.8949 265.147 59.8866 265.106 59.87C265.064 59.8534 265.031 59.8244 265.007 59.7829C264.982 59.7414 264.965 59.6792 264.953 59.6046C264.941 59.5258 264.936 59.4304 264.936 59.3101C264.936 59.1441 264.936 59.0114 264.949 58.9119C264.961 58.8123 264.969 58.7294 264.99 58.6754C265.011 58.6215 265.035 58.5842 265.064 58.5634C265.093 58.5427 265.13 58.5344 265.172 58.5344C265.291 58.5344 265.403 58.5095 265.514 58.4639C265.625 58.4183 265.728 58.3229 265.827 58.1777C265.93 58.0366 266.025 57.8375 266.12 57.5804C266.215 57.3232 266.306 56.9831 266.397 56.5641C266.487 56.141 266.574 55.6309 266.665 55.0253C266.755 54.4197 266.846 53.7021 266.937 52.8683C266.962 52.6734 267.007 52.5365 267.073 52.4577C267.139 52.3789 267.242 52.3416 267.378 52.3416H271.016C271.152 52.3416 271.26 52.3789 271.334 52.4577C271.408 52.5365 271.445 52.6568 271.445 52.8186V59.6004L271.437 59.5963Z" fill="#323638"/>
<path d="M278.231 59.5963C278.231 59.6336 278.218 59.6668 278.198 59.6958C278.177 59.7249 278.136 59.7497 278.082 59.7663C278.028 59.7829 277.95 59.7995 277.851 59.8078C277.756 59.8161 277.632 59.8203 277.488 59.8203C277.344 59.8203 277.216 59.8161 277.121 59.8078C277.026 59.7995 276.948 59.7829 276.89 59.7663C276.832 59.7497 276.791 59.7249 276.766 59.6958C276.746 59.6668 276.733 59.6336 276.733 59.5963V56.8089H276.176C275.945 56.8089 275.772 56.8338 275.653 56.8794C275.533 56.925 275.426 56.9955 275.331 57.0909C275.236 57.1863 275.153 57.3066 275.083 57.4518C275.009 57.597 274.939 57.767 274.873 57.962L274.312 59.5755C274.291 59.6212 274.267 59.6626 274.238 59.6917C274.209 59.7249 274.159 59.7497 274.098 59.7705C274.036 59.7912 273.953 59.8078 273.85 59.812C273.747 59.8203 273.615 59.8244 273.454 59.8244C273.277 59.8244 273.141 59.8203 273.037 59.8078C272.934 59.7954 272.86 59.7788 272.806 59.758C272.753 59.7373 272.72 59.7124 272.703 59.6875C272.687 59.6626 272.679 59.6336 272.679 59.6004C272.679 59.5631 272.687 59.5133 272.699 59.4594C272.712 59.4055 272.74 59.3184 272.782 59.2105L273.339 57.7463C273.413 57.5555 273.487 57.3854 273.561 57.2444C273.636 57.1034 273.722 56.9748 273.817 56.8628C273.912 56.7508 274.011 56.6554 274.114 56.5766C274.217 56.4978 274.333 56.4397 274.461 56.3899C274.225 56.3236 274.015 56.2406 273.834 56.1328C273.652 56.0291 273.499 55.9005 273.376 55.747C273.252 55.5935 273.157 55.4193 273.095 55.2244C273.033 55.0253 273 54.8054 273 54.5607C273 54.2247 273.058 53.9178 273.174 53.644C273.289 53.3702 273.462 53.138 273.693 52.943C273.924 52.7522 274.209 52.6029 274.551 52.495C274.894 52.3913 275.368 52.3374 275.978 52.3374H277.793C277.917 52.3374 278.02 52.3747 278.107 52.4494C278.193 52.5241 278.235 52.6443 278.235 52.8144V59.5963H278.231ZM276.729 53.5071H275.958C275.632 53.5071 275.389 53.532 275.228 53.5818C275.067 53.6316 274.935 53.7021 274.836 53.7975C274.733 53.8929 274.663 54.0049 274.617 54.1376C274.572 54.2703 274.547 54.4155 274.547 54.5773C274.547 54.7391 274.572 54.8801 274.621 55.0128C274.671 55.1455 274.749 55.2617 274.852 55.3571C274.955 55.4525 275.087 55.5313 275.248 55.5852C275.409 55.6391 275.636 55.664 275.937 55.664H276.733V53.503L276.729 53.5071Z" fill="#323638"/>
<path d="M288.398 59.5963C288.398 59.6336 288.386 59.6668 288.365 59.6958C288.345 59.7249 288.303 59.7497 288.246 59.7663C288.188 59.7829 288.11 59.7995 288.015 59.8078C287.916 59.8161 287.796 59.8203 287.652 59.8203C287.507 59.8203 287.384 59.8161 287.289 59.8078C287.194 59.7995 287.115 59.7829 287.058 59.7663C287 59.7497 286.959 59.7249 286.934 59.6958C286.909 59.6668 286.897 59.6336 286.897 59.5963V53.5984H284.137V59.5963C284.137 59.6336 284.125 59.6668 284.1 59.6958C284.076 59.7249 284.034 59.7497 283.977 59.7663C283.919 59.7829 283.845 59.7995 283.746 59.8078C283.651 59.8161 283.527 59.8203 283.378 59.8203C283.23 59.8203 283.11 59.8161 283.015 59.8078C282.921 59.7995 282.842 59.7829 282.784 59.7663C282.727 59.7497 282.685 59.7249 282.665 59.6958C282.64 59.6668 282.632 59.6336 282.632 59.5963V52.8144C282.632 52.6526 282.673 52.5324 282.751 52.4535C282.83 52.3747 282.937 52.3374 283.073 52.3374H287.973C288.11 52.3374 288.217 52.3747 288.295 52.4535C288.374 52.5324 288.411 52.6526 288.411 52.8144V59.5963H288.398Z" fill="#323638"/>
<path d="M296.739 55.9792C296.739 56.5972 296.664 57.1531 296.512 57.6384C296.359 58.1278 296.132 58.5385 295.831 58.8786C295.53 59.2187 295.155 59.4759 294.713 59.6584C294.268 59.8368 293.752 59.928 293.171 59.928C292.589 59.928 292.09 59.8534 291.661 59.6999C291.232 59.5464 290.873 59.3183 290.589 59.0072C290.3 58.6961 290.085 58.302 289.945 57.8209C289.801 57.3397 289.731 56.7715 289.731 56.1161C289.731 55.5146 289.809 54.9713 289.962 54.4901C290.114 54.0089 290.341 53.5983 290.642 53.2623C290.943 52.9263 291.319 52.665 291.76 52.4825C292.205 52.3041 292.721 52.2129 293.311 52.2129C293.901 52.2129 294.367 52.2876 294.796 52.4369C295.225 52.5862 295.584 52.8185 295.872 53.1296C296.161 53.4407 296.38 53.8347 296.524 54.3076C296.669 54.7805 296.743 55.3404 296.743 55.9875L296.739 55.9792ZM295.159 56.0622C295.159 55.6681 295.13 55.3155 295.068 54.992C295.006 54.6726 294.903 54.3947 294.755 54.1666C294.606 53.9384 294.412 53.7601 294.169 53.6356C293.926 53.5112 293.62 53.449 293.253 53.449C292.886 53.449 292.573 53.5195 292.325 53.6605C292.078 53.8015 291.875 53.9882 291.723 54.2205C291.57 54.4569 291.463 54.7265 291.401 55.0418C291.339 55.357 291.306 55.6847 291.306 56.0373C291.306 56.4438 291.335 56.8088 291.397 57.1323C291.459 57.4559 291.562 57.7338 291.706 57.9661C291.851 58.1983 292.049 58.3726 292.292 58.4928C292.535 58.6131 292.845 58.6754 293.216 58.6754C293.587 58.6754 293.897 58.6048 294.144 58.468C294.392 58.3311 294.594 58.1403 294.746 57.9038C294.899 57.6674 295.006 57.3895 295.068 57.0701C295.13 56.7549 295.163 56.4147 295.163 56.058L295.159 56.0622Z" fill="#323638"/>
<path d="M306.457 59.5921C306.457 59.6336 306.444 59.6709 306.424 59.6999C306.399 59.729 306.358 59.7539 306.3 59.7705C306.238 59.7912 306.16 59.8036 306.061 59.8119C305.958 59.8202 305.83 59.8244 305.673 59.8244C305.516 59.8244 305.38 59.8202 305.277 59.8119C305.174 59.8036 305.091 59.7871 305.034 59.7663C304.972 59.7456 304.931 59.7165 304.902 59.6792C304.873 59.6419 304.848 59.5962 304.832 59.5423L304.299 57.8541C304.225 57.6177 304.147 57.4186 304.06 57.2568C303.974 57.0992 303.879 56.9665 303.767 56.8669C303.656 56.7674 303.536 56.6968 303.4 56.6554C303.264 56.6139 303.107 56.5932 302.934 56.5932H302.641V59.5755C302.641 59.617 302.629 59.6543 302.608 59.6834C302.588 59.7124 302.546 59.7373 302.493 59.758C302.439 59.7788 302.361 59.7953 302.266 59.8036C302.171 59.8119 302.051 59.8161 301.907 59.8161C301.763 59.8161 301.639 59.8119 301.544 59.8036C301.449 59.7953 301.375 59.7788 301.317 59.758C301.259 59.7373 301.222 59.7124 301.202 59.6834C301.181 59.6543 301.169 59.617 301.169 59.5755V56.5932H300.876C300.686 56.5932 300.525 56.618 300.381 56.6637C300.236 56.7093 300.117 56.7881 300.01 56.8877C299.902 56.9914 299.812 57.1199 299.729 57.2776C299.651 57.4352 299.577 57.626 299.506 57.85L298.978 59.5382C298.958 59.5921 298.937 59.6377 298.908 59.6751C298.879 59.7124 298.834 59.7414 298.772 59.7622C298.71 59.7829 298.632 59.7995 298.529 59.8078C298.426 59.8161 298.298 59.8202 298.137 59.8202C297.976 59.8202 297.844 59.8161 297.745 59.8078C297.646 59.7995 297.568 59.7829 297.506 59.7663C297.444 59.7497 297.407 59.7248 297.382 59.6958C297.357 59.6668 297.349 59.6294 297.349 59.588C297.349 59.5672 297.349 59.5465 297.349 59.5174C297.349 59.4926 297.357 59.4594 297.366 59.422C297.374 59.3847 297.386 59.3432 297.403 59.2934C297.419 59.2437 297.44 59.1815 297.465 59.1151L297.98 57.6301C298.075 57.3522 298.17 57.1199 298.269 56.9291C298.364 56.7383 298.467 56.5807 298.574 56.4521C298.681 56.3235 298.797 56.2198 298.925 56.1369C299.049 56.0539 299.193 55.9834 299.35 55.9212C299.218 55.8756 299.094 55.8175 298.978 55.7428C298.867 55.6723 298.76 55.5728 298.665 55.4525C298.566 55.3322 298.475 55.1829 298.384 55.0004C298.294 54.8178 298.207 54.6022 298.116 54.345L297.675 53.0093C297.634 52.8849 297.605 52.7895 297.588 52.719C297.572 52.6485 297.564 52.5863 297.564 52.5365C297.564 52.495 297.576 52.4577 297.597 52.4286C297.617 52.3996 297.658 52.3789 297.712 52.3581C297.766 52.3415 297.844 52.3291 297.943 52.3166C298.038 52.3083 298.166 52.3042 298.318 52.3042C298.479 52.3042 298.607 52.3083 298.706 52.3166C298.805 52.3249 298.884 52.3415 298.941 52.3623C298.999 52.383 299.04 52.412 299.065 52.4494C299.09 52.4867 299.11 52.5323 299.127 52.5863L299.597 54.1625C299.663 54.3823 299.733 54.5648 299.808 54.7183C299.882 54.8676 299.968 54.9879 300.067 55.0792C300.166 55.1704 300.282 55.2368 300.41 55.2783C300.538 55.3197 300.694 55.3405 300.876 55.3405H301.169V52.5406C301.169 52.4992 301.181 52.4618 301.202 52.4328C301.222 52.4037 301.259 52.3789 301.317 52.3623C301.375 52.3457 301.449 52.3291 301.544 52.3208C301.639 52.3125 301.759 52.3083 301.907 52.3083C302.056 52.3083 302.171 52.3125 302.266 52.3208C302.361 52.3291 302.435 52.3457 302.493 52.3623C302.55 52.383 302.588 52.4037 302.608 52.4328C302.633 52.4618 302.641 52.4992 302.641 52.5406V55.3405H302.934C303.107 55.3405 303.256 55.3197 303.388 55.2741C303.52 55.2285 303.635 55.158 303.738 55.0626C303.837 54.9672 303.928 54.8427 304.007 54.6975C304.085 54.5524 304.151 54.3699 304.213 54.1583L304.683 52.5863C304.7 52.5323 304.72 52.4867 304.745 52.4494C304.77 52.412 304.811 52.383 304.869 52.3623C304.926 52.3415 305.005 52.3249 305.104 52.3166C305.203 52.3083 305.335 52.3042 305.491 52.3042C305.648 52.3042 305.768 52.3083 305.863 52.3166C305.958 52.3249 306.036 52.3415 306.094 52.3581C306.151 52.3747 306.189 52.3996 306.209 52.4286C306.23 52.4577 306.242 52.495 306.242 52.5365C306.242 52.5863 306.234 52.6485 306.217 52.719C306.201 52.7937 306.172 52.8891 306.135 53.0093L305.694 54.3242C305.611 54.569 305.524 54.7805 305.438 54.9547C305.351 55.1289 305.261 55.2783 305.162 55.3944C305.063 55.5105 304.959 55.6142 304.844 55.6889C304.728 55.7677 304.601 55.8341 304.46 55.888V55.8963C304.621 55.9668 304.766 56.0415 304.889 56.1286C305.017 56.2157 305.133 56.3235 305.24 56.4521C305.347 56.5807 305.446 56.7425 305.537 56.9333C305.628 57.1241 305.722 57.3564 305.821 57.6343L306.333 59.1192C306.358 59.1898 306.382 59.2478 306.395 59.2976C306.407 59.3474 306.424 59.3889 306.432 59.4262C306.44 59.4635 306.448 59.4926 306.453 59.5216C306.453 59.5506 306.457 59.5714 306.457 59.5921Z" fill="#323638"/>
<path d="M313.687 59.5962C313.687 59.6336 313.675 59.6668 313.65 59.6958C313.626 59.7248 313.584 59.7497 313.527 59.7663C313.469 59.7871 313.39 59.7995 313.296 59.8078C313.201 59.8161 313.077 59.8202 312.933 59.8202C312.788 59.8202 312.664 59.8161 312.57 59.8078C312.475 59.7995 312.396 59.7829 312.339 59.7663C312.281 59.7497 312.244 59.7248 312.223 59.6958C312.203 59.6668 312.19 59.6336 312.19 59.5962V55.6682C312.19 55.5188 312.19 55.3737 312.194 55.2285C312.198 55.0833 312.202 54.9589 312.211 54.8469H312.198C312.17 54.9008 312.132 54.963 312.091 55.0335C312.05 55.104 312.005 55.1787 311.955 55.2575C311.906 55.3363 311.856 55.4151 311.802 55.4981C311.749 55.5811 311.695 55.6599 311.642 55.7387L309.064 59.6045C309.031 59.646 309.002 59.6834 308.969 59.7165C308.936 59.7456 308.894 59.7705 308.841 59.7871C308.787 59.8036 308.725 59.8161 308.651 59.8202C308.577 59.8244 308.482 59.8285 308.362 59.8285C308.214 59.8285 308.094 59.8244 308.003 59.8161C307.913 59.8078 307.838 59.7912 307.789 59.7746C307.739 59.7539 307.702 59.729 307.682 59.6999C307.661 59.6709 307.653 59.6336 307.653 59.5921V52.5406C307.653 52.5033 307.665 52.4701 307.69 52.4411C307.715 52.412 307.756 52.3872 307.818 52.3706C307.88 52.354 307.954 52.3374 308.049 52.3291C308.144 52.3208 308.263 52.3166 308.412 52.3166C308.56 52.3166 308.684 52.3208 308.779 52.3291C308.874 52.3374 308.952 52.354 309.01 52.3706C309.068 52.3872 309.109 52.412 309.13 52.4411C309.15 52.4701 309.163 52.5033 309.163 52.5406V56.4936C309.163 56.618 309.163 56.7466 309.154 56.8835C309.154 57.0204 309.146 57.1573 309.138 57.2859H309.15C309.216 57.1697 309.299 57.0328 309.398 56.8711C309.497 56.7093 309.6 56.5517 309.707 56.3982L312.285 52.5323C312.31 52.495 312.339 52.4618 312.372 52.4328C312.405 52.4037 312.442 52.3789 312.495 52.3623C312.549 52.3415 312.611 52.3291 312.689 52.3208C312.763 52.3125 312.862 52.3083 312.982 52.3083C313.126 52.3083 313.246 52.3125 313.333 52.3208C313.419 52.3291 313.494 52.3457 313.547 52.3623C313.601 52.3789 313.638 52.4037 313.659 52.4328C313.679 52.4618 313.692 52.4992 313.692 52.5406V59.5962H313.687Z" fill="#323638"/>
<path d="M321.116 59.5963C321.116 59.6336 321.104 59.6668 321.083 59.6958C321.063 59.7249 321.021 59.7497 320.964 59.7663C320.906 59.7871 320.827 59.7995 320.733 59.8078C320.638 59.8161 320.514 59.8203 320.37 59.8203C320.225 59.8203 320.097 59.8161 320.002 59.8078C319.908 59.7995 319.829 59.7829 319.776 59.7663C319.718 59.7456 319.677 59.7249 319.656 59.6958C319.635 59.6668 319.623 59.6336 319.623 59.5963V53.5818H318.031C317.924 54.4611 317.816 55.2285 317.705 55.8839C317.594 56.5392 317.474 57.1034 317.35 57.5721C317.222 58.0408 317.086 58.4224 316.934 58.7252C316.781 59.028 316.612 59.2603 316.418 59.4345C316.224 59.6087 316.006 59.729 315.766 59.7954C315.523 59.8617 315.247 59.8949 314.937 59.8949C314.879 59.8949 314.83 59.8866 314.789 59.87C314.747 59.8534 314.714 59.8244 314.69 59.7829C314.665 59.7414 314.648 59.6792 314.636 59.6046C314.624 59.5258 314.62 59.4304 314.62 59.3101C314.62 59.1441 314.62 59.0114 314.632 58.9119C314.644 58.8123 314.653 58.7294 314.673 58.6754C314.694 58.6215 314.719 58.5842 314.747 58.5634C314.78 58.5427 314.814 58.5344 314.859 58.5344C314.978 58.5344 315.09 58.5095 315.201 58.4639C315.313 58.4183 315.416 58.3229 315.515 58.1777C315.618 58.0366 315.713 57.8375 315.808 57.5804C315.902 57.3232 315.993 56.9831 316.084 56.5641C316.175 56.141 316.261 55.6309 316.352 55.0253C316.443 54.4197 316.534 53.7021 316.624 52.8683C316.649 52.6734 316.694 52.5365 316.76 52.4577C316.831 52.3789 316.93 52.3416 317.066 52.3416H320.704C320.84 52.3416 320.947 52.3789 321.021 52.4577C321.096 52.5365 321.133 52.6568 321.133 52.8186V59.6004L321.116 59.5963Z" fill="#323638"/>
<path d="M328.137 57.3315C328.137 57.6841 328.083 58.0076 327.972 58.3021C327.864 58.5966 327.691 58.8538 327.46 59.0695C327.225 59.2893 326.924 59.4635 326.549 59.5921C326.173 59.7248 325.658 59.7871 325.01 59.7871H323.261C323.195 59.7871 323.137 59.7788 323.08 59.7622C323.026 59.7456 322.977 59.7165 322.935 59.6751C322.894 59.6336 322.861 59.5838 322.836 59.5257C322.812 59.4677 322.799 59.393 322.799 59.31V52.5282C322.799 52.4909 322.812 52.4577 322.836 52.4286C322.861 52.3996 322.902 52.3747 322.964 52.3581C323.026 52.3415 323.1 52.3249 323.199 52.3166C323.298 52.3083 323.418 52.3042 323.558 52.3042C323.707 52.3042 323.83 52.3083 323.925 52.3166C324.02 52.3249 324.098 52.3415 324.156 52.3581C324.214 52.3747 324.255 52.3996 324.276 52.4286C324.296 52.4577 324.309 52.4909 324.309 52.5282V55.1041H325.241C325.794 55.1041 326.235 55.1538 326.565 55.2492C326.895 55.3446 327.176 55.4857 327.407 55.6765C327.638 55.8673 327.815 56.0995 327.947 56.3816C328.075 56.6637 328.141 56.9789 328.141 57.3315H328.137ZM326.59 57.4559C326.59 57.2734 326.565 57.1075 326.512 56.9623C326.458 56.8171 326.375 56.6927 326.264 56.589C326.153 56.4853 326.012 56.4065 325.839 56.3484C325.666 56.2904 325.414 56.2613 325.076 56.2613H324.305V58.6298H325.101C325.451 58.6298 325.715 58.5924 325.893 58.5219C326.07 58.4514 326.21 58.3602 326.309 58.244C326.408 58.1279 326.479 58.0034 326.524 57.8666C326.569 57.7297 326.59 57.5928 326.59 57.4559ZM330.55 59.5921C330.55 59.6294 330.537 59.6626 330.513 59.6917C330.488 59.7207 330.447 59.7456 330.389 59.7622C330.331 59.7829 330.253 59.7953 330.158 59.8036C330.063 59.8119 329.939 59.8161 329.795 59.8161C329.65 59.8161 329.531 59.8119 329.432 59.8036C329.337 59.7953 329.259 59.7788 329.201 59.7622C329.143 59.7456 329.102 59.7207 329.077 59.6917C329.052 59.6626 329.04 59.6294 329.04 59.5921V52.5282C329.04 52.4909 329.052 52.4577 329.077 52.4286C329.102 52.3996 329.143 52.3747 329.201 52.3581C329.259 52.3415 329.337 52.3249 329.436 52.3166C329.535 52.3083 329.655 52.3042 329.795 52.3042C329.935 52.3042 330.063 52.3083 330.158 52.3166C330.253 52.3249 330.331 52.3415 330.389 52.3581C330.447 52.3789 330.488 52.3996 330.513 52.4286C330.537 52.4577 330.55 52.4909 330.55 52.5282V59.5921Z" fill="#323638"/>
<path d="M337.504 59.2229C337.574 59.3598 337.62 59.4635 337.64 59.5465C337.661 59.6253 337.649 59.6875 337.603 59.729C337.558 59.7705 337.475 59.7995 337.356 59.8119C337.236 59.8244 337.067 59.8285 336.857 59.8285C336.675 59.8285 336.535 59.8285 336.432 59.8161C336.329 59.8078 336.246 59.7953 336.188 59.7788C336.131 59.7622 336.085 59.7373 336.06 59.7082C336.032 59.6792 336.011 59.6377 335.99 59.5921L334.596 56.9001L333.21 59.5921C333.19 59.6377 333.165 59.6751 333.136 59.7082C333.111 59.7414 333.066 59.7622 333.008 59.7788C332.95 59.7953 332.868 59.8078 332.761 59.8161C332.653 59.8244 332.517 59.8285 332.344 59.8285C332.146 59.8285 331.993 59.8244 331.882 59.8119C331.775 59.7995 331.701 59.7746 331.663 59.729C331.626 59.6875 331.618 59.6253 331.643 59.5465C331.663 59.4635 331.713 59.3598 331.787 59.2229L333.565 55.9668L331.915 52.9098C331.845 52.7729 331.8 52.6609 331.775 52.578C331.75 52.495 331.758 52.4328 331.804 52.3913C331.849 52.3498 331.927 52.3249 332.047 52.3166C332.167 52.3083 332.336 52.3042 332.55 52.3042C332.732 52.3042 332.872 52.3042 332.975 52.3166C333.078 52.3249 333.165 52.3374 333.223 52.354C333.284 52.3706 333.326 52.3955 333.35 52.4245C333.375 52.4535 333.4 52.495 333.421 52.5406L334.72 55.0045L335.986 52.5406C336.007 52.495 336.032 52.4577 336.056 52.4245C336.081 52.3913 336.122 52.3706 336.176 52.354C336.23 52.3374 336.308 52.3249 336.403 52.3166C336.502 52.3083 336.634 52.3042 336.807 52.3042C336.997 52.3042 337.149 52.3083 337.261 52.3166C337.372 52.3249 337.446 52.354 337.492 52.3955C337.533 52.4369 337.545 52.4992 337.525 52.578C337.504 52.6609 337.459 52.7688 337.397 52.9057L335.747 55.9461L337.504 59.2188V59.2229Z" fill="#323638"/>
<path d="M143.461 24.6126L138.697 39.682C138.35 39.7277 137.929 39.7443 137.434 39.736C136.94 39.7235 136.556 39.7194 136.28 39.7194C137.084 37.3136 137.839 35.0198 138.54 32.8421C139.241 30.6686 139.852 28.744 140.371 27.0765C140.891 25.409 141.299 24.0693 141.596 23.0489C141.893 22.0326 142.046 21.4851 142.046 21.4187C142.116 21.0952 142.104 20.7053 142.013 20.2532C141.922 19.801 141.807 19.3448 141.667 18.8802C141.53 18.4156 141.378 17.976 141.217 17.5612C141.056 17.1464 140.941 16.8104 140.87 16.5532H147.087L154.474 39.7152H148.398L143.461 24.6085V24.6126Z" fill="#447C2A"/>
<path d="M169.014 16.5574L168.255 18.8512L161.969 18.8844V25.6206L168.012 25.6538L167.183 27.5618H161.969V37.3882H168.531L169.22 39.7152H156.169L156.202 16.5532H169.014V16.5574Z" fill="#447C2A"/>
<path d="M179.454 39.7194C178.765 39.7194 178.085 39.5535 177.47 39.2341C176.48 38.7488 175.581 38.11 174.776 37.326C173.972 36.5379 173.287 35.6586 172.722 34.6879C172.157 33.7173 171.72 32.6804 171.411 31.5812C171.101 30.482 170.944 29.3745 170.944 28.267C170.944 26.5788 171.25 25.0191 171.86 23.5964C172.471 22.1737 173.304 20.9417 174.364 19.8965C175.424 18.8553 176.67 18.0382 178.109 17.4492C179.549 16.8602 181.083 16.5615 182.721 16.5615H188.764L187.902 18.9217C187.555 18.9217 187.101 18.9175 186.536 18.9051C185.971 18.8927 185.39 18.8885 184.791 18.8885C184.193 18.8885 183.69 18.8968 183.22 18.9051C182.75 18.9175 182.432 18.959 182.271 19.0254C181.327 19.3738 180.551 19.884 179.941 20.5518C179.33 21.2238 178.835 21.9746 178.456 22.8083C178.076 23.642 177.812 24.5214 177.66 25.4464C177.507 26.3714 177.437 27.2632 177.437 28.1218C177.437 30.876 177.887 33.0578 178.782 34.6672C179.681 36.2766 180.997 37.1933 182.746 37.3758C182.952 37.3924 183.018 37.3924 183.55 37.3924H185.344C186.103 37.3924 186.965 37.3799 187.935 37.3592L188.9 39.7194H179.454Z" fill="#447C2A"/>
<path d="M200.882 39.7194V26.417L199.088 27.7361C198.927 27.7153 197.347 27.4374 196.811 28.1177C196.663 28.3043 196.621 28.4454 196.605 28.8809V39.7153H190.735V16.6279H196.745V25.5501H200.957V16.6279H206.793V39.7194H200.886H200.882Z" fill="#447C2A"/>
<path d="M220.393 39.7194C220.186 39.0723 219.939 38.3174 219.65 37.4629C219.361 36.6084 219.081 35.7747 218.805 34.9617C218.644 34.4971 218.483 34.0284 218.322 33.5556C218.161 33.0827 218 32.5891 217.839 32.0789C217.678 32.4024 217.448 32.7052 217.151 32.9831C216.849 33.2611 216.441 33.4353 215.773 33.4353C215.352 33.4477 214.284 33.4353 214.284 33.4353H213.611C213.368 33.4353 213.112 33.4353 212.848 33.4477C212.687 33.8418 212.555 34.186 212.419 34.5801C212.283 34.9742 212.155 35.3682 212.04 35.7623C211.809 36.4342 211.574 37.1228 211.33 37.8279C211.087 38.5331 210.877 39.1553 210.691 39.6862C210.345 39.7318 209.924 39.7484 209.429 39.7401C208.934 39.7277 208.55 39.7235 208.274 39.7235L210.551 33.3357L209.619 33.232C209.734 33.1159 209.85 32.9956 209.965 32.867C210.081 32.7384 210.196 32.6181 210.312 32.502C210.497 32.2946 210.67 32.0748 210.831 31.8425C210.992 31.6102 211.108 31.3903 211.178 31.183C211.409 30.3741 211.685 29.4242 212.007 28.3375C212.329 27.2507 212.638 26.2013 212.939 25.1933C213.236 24.1854 213.484 23.3226 213.682 22.605C213.875 21.8875 213.974 21.4934 213.974 21.4229C214.045 21.0993 214.036 20.7094 213.958 20.2573C213.875 19.8052 213.768 19.3489 213.632 18.8844C213.496 18.4198 213.352 17.9801 213.199 17.5653C213.05 17.1505 212.939 16.8145 212.869 16.5574H219.085L226.473 39.7194H220.397H220.393ZM215.455 24.6126C215.34 24.7744 215.166 25.2016 214.935 25.8985C214.705 26.5912 214.474 27.3461 214.247 28.155C214.111 28.6195 213.97 29.109 213.834 29.6316C213.698 30.1543 213.545 30.7018 213.385 31.2825H217.596L215.455 24.6168V24.6126Z" fill="#447C2A"/>
<path d="M381.92 39.6903C381.714 39.0432 381.466 38.2883 381.178 37.4339C380.889 36.5794 380.608 35.7456 380.332 34.9327C380.171 34.4681 380.01 33.9994 379.849 33.5265C379.689 33.0536 379.528 32.56 379.367 32.0498C379.206 32.3734 378.975 32.6762 378.678 32.9541C378.377 33.232 377.969 33.4062 377.3 33.4062C376.88 33.4187 375.811 33.4062 375.811 33.4062H375.139C374.896 33.4062 374.64 33.4062 374.376 33.4187C374.215 33.8127 374.083 34.157 373.947 34.551C373.811 34.9451 373.683 35.3392 373.567 35.7332C373.336 36.4052 373.101 37.0937 372.858 37.7989C372.614 38.504 372.404 39.1262 372.219 39.6571C371.872 39.7028 371.451 39.7194 370.956 39.7111C370.461 39.6986 370.078 39.6945 369.801 39.6945L372.078 33.3067L371.146 33.203C371.262 33.0868 371.377 32.9665 371.493 32.838C371.608 32.7094 371.724 32.5891 371.839 32.4729C372.025 32.2655 372.198 32.0457 372.359 31.8134C372.52 31.5811 372.635 31.3613 372.705 31.1539C372.936 30.3451 373.213 29.3952 373.534 28.3084C373.856 27.2217 374.165 26.1722 374.467 25.1643C374.764 24.1564 375.011 23.2936 375.209 22.576C375.403 21.8584 375.502 21.4643 375.502 21.3938C375.572 21.0703 375.564 20.6804 375.485 20.2283C375.403 19.7761 375.296 19.3199 375.16 18.8553C375.023 18.3907 374.879 17.9511 374.726 17.5363C374.578 17.1215 374.467 16.7855 374.396 16.5283H380.612L388 39.6903H381.924H381.92ZM376.983 24.5836C376.867 24.7454 376.694 25.1726 376.463 25.8694C376.232 26.5621 376.001 27.3171 375.774 28.1259C375.638 28.5905 375.498 29.0799 375.362 29.6026C375.226 30.1252 375.073 30.6727 374.912 31.2534H379.123L376.983 24.5877V24.5836Z" fill="#447C2A"/>
<path d="M304.403 39.7235C304.196 39.0764 303.949 38.3215 303.66 37.4671C303.371 36.6126 303.091 35.7789 302.815 34.9659C302.654 34.5013 302.493 34.0326 302.332 33.5597C302.171 33.0868 302.01 32.5932 301.849 32.0831C301.688 32.4066 301.458 32.7094 301.161 32.9873C300.859 33.2652 300.451 33.4394 299.783 33.4394C299.362 33.4519 298.294 33.4394 298.294 33.4394H297.621C297.378 33.4394 297.122 33.4394 296.858 33.4519C296.697 33.8459 296.566 34.1902 296.429 34.5842C296.293 34.9783 296.165 35.3724 296.05 35.7664C295.819 36.4384 295.584 37.1269 295.34 37.8321C295.097 38.5372 294.887 39.1594 294.701 39.6903C294.355 39.736 293.934 39.7526 293.439 39.7443C292.944 39.7318 292.56 39.7277 292.284 39.7277L294.561 33.3399L293.629 33.2362C293.744 33.12 293.86 32.9997 293.975 32.8712C294.091 32.7426 294.206 32.6223 294.322 32.5061C294.507 32.2987 294.68 32.0789 294.841 31.8466C295.002 31.6143 295.118 31.3945 295.188 31.1871C295.419 30.3783 295.695 29.4284 296.017 28.3416C296.339 27.2549 296.648 26.2054 296.949 25.1975C297.246 24.1896 297.494 23.3268 297.692 22.6092C297.885 21.8916 297.984 21.4976 297.984 21.427C298.055 21.1035 298.046 20.7136 297.968 20.2615C297.885 19.8093 297.778 19.3531 297.642 18.8885C297.506 18.4239 297.362 17.9843 297.209 17.5695C297.06 17.1547 296.949 16.8187 296.879 16.5615H303.095L310.483 39.7235H304.407H304.403ZM299.465 24.6168C299.35 24.7786 299.176 25.2058 298.946 25.9026C298.715 26.5953 298.484 27.3503 298.257 28.1591C298.121 28.6237 297.98 29.1131 297.844 29.6358C297.708 30.1584 297.555 30.7059 297.395 31.2866H301.606L299.465 24.6209V24.6168Z" fill="#447C2A"/>
<path d="M227.747 39.7194C228.069 39.3253 228.457 38.8442 228.906 38.28C229.356 37.7118 229.83 37.0979 230.338 36.4384C230.845 35.7789 231.34 35.1152 231.822 34.4432C232.305 33.7713 234.961 29.6233 235.069 29.445C235.329 29.0094 235.609 28.8767 234.277 28.1259C233.563 27.7775 232.862 27.4415 232.169 27.118C231.48 26.7944 230.861 26.4128 230.321 25.9732C229.781 25.5335 229.343 25.0067 229.009 24.3928C228.675 23.7789 228.51 23.0115 228.51 22.0824C228.51 21.062 228.675 20.2034 229.009 19.4941C229.343 18.789 229.814 18.2207 230.424 17.7935C231.035 17.3662 231.761 17.051 232.598 16.856C233.439 16.6611 234.376 16.5615 235.411 16.5615H245.08V39.6862H239.243V32.8795C238.831 33.4602 238.496 33.9662 238.241 34.4059C237.985 34.8456 237.717 35.3018 237.428 35.7789C237.139 36.2517 236.785 36.7992 236.36 37.409C235.935 38.0229 235.353 38.7944 234.615 39.7194H227.743H227.747ZM233.757 23.1235C233.757 23.7706 233.831 24.343 233.98 24.8408C234.128 25.3385 234.363 25.7948 234.689 26.2137C235.011 26.6285 235.432 27.0433 235.951 27.4457C236.471 27.8522 237.218 28.3333 237.931 28.773C238.983 29.4035 239.041 29.7851 239.214 30.7267V18.088H238.039C237.395 18.088 236.805 18.2373 236.277 18.5401C235.749 18.8429 235.3 19.2328 234.933 19.7222C234.565 20.2075 234.277 20.7509 234.07 21.3524C233.864 21.9538 233.761 22.547 233.761 23.1235H233.757Z" fill="#447C2A"/>
<path d="M261.17 39.7194L262.965 35.1359L255.404 16.6279H262.136L266.384 26.4875L270.319 16.5906H272.736L263.621 39.7152H261.17V39.7194Z" fill="#447C2A"/>
<path d="M281.906 39.7194C281.217 39.7194 280.536 39.5535 279.922 39.2341C278.932 38.7488 278.033 38.11 277.228 37.326C276.424 36.5379 275.739 35.6586 275.174 34.6879C274.609 33.7173 274.172 32.6804 273.862 31.5812C273.553 30.482 273.396 29.3745 273.396 28.267C273.396 26.5788 273.702 25.0191 274.312 23.5964C274.923 22.1737 275.756 20.9417 276.816 19.8965C277.876 18.8553 279.126 18.0382 280.561 17.4492C282.001 16.8602 283.535 16.5615 285.173 16.5615H291.216L290.353 18.9217C290.007 18.9217 289.553 18.9175 288.988 18.9051C288.423 18.8927 287.841 18.8885 287.243 18.8885C286.645 18.8885 286.146 18.8968 285.672 18.9051C285.197 18.9175 284.884 18.959 284.723 19.0254C283.779 19.3738 283.003 19.884 282.393 20.5518C281.782 21.2238 281.287 21.9746 280.908 22.8083C280.528 23.642 280.264 24.5214 280.116 25.4464C279.963 26.3714 279.889 27.2632 279.889 28.1218C279.889 30.876 280.338 33.0578 281.238 34.6672C282.137 36.2766 283.461 37.1726 285.21 37.3592C285.643 37.409 285.474 37.3924 286.006 37.3924H287.8C288.559 37.3924 289.425 37.3799 290.391 37.3592L291.356 39.7194H281.91H281.906Z" fill="#447C2A"/>
<path d="M329.333 39.7194H313.795V43.3654L311.275 43.9544V37.3551H313.209C313.923 35.1774 314.574 33.1366 315.16 31.2244C315.746 29.3164 316.249 27.6448 316.662 26.2054C317.074 24.7703 317.392 23.6296 317.61 22.7834C317.829 21.9372 317.936 21.481 317.936 21.4104C318.006 21.0869 317.994 20.697 317.903 20.2449C317.812 19.7927 317.697 19.3365 317.557 18.8719C317.42 18.4073 317.268 17.9677 317.107 17.5529C316.946 17.1381 316.831 16.8021 316.761 16.5449H322.977L329.535 37.3426H331.849V43.3488L329.329 43.9378V39.7028L329.333 39.7194ZM319.355 24.6126L315.556 37.3551H323.43L319.355 24.6126Z" fill="#447C2A"/>
<path d="M339.311 16.5574V22.323C339.311 23.248 339.571 24.0236 340.09 24.65C340.606 25.2763 341.258 25.8321 342.041 26.3174C342.825 26.8027 343.671 27.259 344.578 27.6904C345.486 28.1176 346.335 28.6154 347.115 29.1836C347.899 29.7519 348.546 30.4239 349.066 31.1954C349.586 31.971 349.841 32.9375 349.841 34.0948C349.841 34.6755 349.742 35.2935 349.549 35.953C349.355 36.6126 349.066 37.2223 348.687 37.774C348.307 38.3298 347.829 38.7944 347.255 39.1635C346.678 39.5327 346.014 39.7194 345.255 39.7194H333.548V16.5242L339.315 16.5574H339.311ZM344.731 33.3274C344.756 32.2614 344.57 31.4194 344.178 30.793C343.786 30.1667 343.308 29.6358 342.747 29.1961C342.182 28.7564 341.596 28.3457 340.985 27.9641C340.375 27.5825 339.851 27.0889 339.414 26.4875V38.0146H340C340.643 38.0146 341.249 37.9067 341.815 37.6869C342.38 37.467 342.879 37.1601 343.316 36.766C343.753 36.372 344.1 35.8867 344.351 35.306C344.603 34.7294 344.731 34.0699 344.731 33.3274Z" fill="#447C2A"/>
<path d="M357.959 18.8512V22.323C357.959 23.248 358.219 24.0236 358.739 24.65C359.254 25.2763 359.906 25.8321 360.69 26.3174C361.473 26.8027 362.319 27.259 363.226 27.6904C364.134 28.1176 364.984 28.6154 365.763 29.1836C366.547 29.7519 367.194 30.4239 367.714 31.1954C368.234 31.971 368.49 32.9375 368.49 34.0948C368.49 34.6755 368.391 35.2935 368.197 35.953C368.003 36.6126 367.714 37.2223 367.335 37.774C366.955 38.3298 366.477 38.7944 365.903 39.1635C365.326 39.5327 364.662 39.7194 363.903 39.7194H352.197V16.5242H366.596L365.837 18.8512H357.963H357.959ZM363.379 33.3316C363.404 32.2655 363.218 31.4235 362.826 30.7972C362.434 30.1708 361.956 29.6399 361.395 29.2002C360.83 28.7605 360.244 28.3499 359.634 27.9683C359.023 27.5867 358.499 27.0931 358.062 26.4916V38.0187H358.648C359.291 38.0187 359.898 37.9109 360.463 37.691C361.028 37.4712 361.527 37.1642 361.964 36.7702C362.401 36.3761 362.748 35.8908 363 35.3101C363.251 34.7336 363.379 34.074 363.379 33.3316Z" fill="#447C2A"/>
<path d="M0.0990346 50.7156C-0.202076 51.176 0.193905 51.3461 0.981743 51.317C2.64404 51.2797 6.20375 50.2966 8.45177 49.3924C8.03516 49.7864 5.00755 52.5365 1.50147 53.1712C-1.34877 53.6896 0.750754 55.6516 0.750754 55.6516C1.42722 56.6513 2.62754 56.9167 3.76599 56.9043C5.01993 56.9043 6.19962 56.5434 6.52136 56.4397C5.01993 58.4888 4.52495 60.3595 5.78302 60.2558C6.41824 60.2392 7.54431 59.6709 9.28085 58.2814C8.45589 60.2392 9.05399 61.4711 10.1099 61.5375C10.8937 61.6246 11.9455 61.048 12.8571 59.6295C12.9024 60.9775 13.583 61.8776 14.5111 61.8984C15.0515 61.9357 15.6867 61.6661 16.326 60.9983C17.0561 62.0311 17.6913 62.3754 18.2193 62.3339C18.2977 62.3339 18.3719 62.3256 18.4462 62.309C18.1203 64.3332 17.6996 65.8887 17.0974 67.1413C16.8581 66.486 16.4869 65.7933 15.897 65.1794C15.897 65.1794 16.3343 66.7514 16.5116 68.1617C16.491 68.1949 16.4704 68.2281 16.4498 68.2571C16.2105 67.357 15.5671 66.1251 13.8759 65.1586C13.8759 65.1586 15.9177 66.6975 15.6454 69.3356L15.5588 69.3563C15.2989 68.9001 14.2801 67.4068 12.0775 67.3363C12.0775 67.3363 14.8452 68.5765 14.4369 70.7127C14.4369 70.7127 16.9076 71.0694 19.3 70.3518C20.5787 70.1113 21.7749 69.8209 22.2781 69.7006C23.8002 69.3356 30.9113 71.2354 28.1477 69.7504C25.6151 68.3899 25.0954 64.553 24.8355 59.8659C26.5184 61.326 28.2715 62.0684 29.3109 62.0145C30.4576 61.9979 30.8 61.0771 29.3934 59.1773C30.4782 59.8659 31.9714 60.907 32.9902 60.9361C33.6172 60.9817 34.0751 60.6664 34.1699 59.6917C35.7456 60.8075 36.8469 61.3882 37.4038 61.3384C38.4102 61.3384 37.8905 59.5797 35.4775 55.5686C37.7998 57.1241 39.7673 57.5679 41.2605 57.4767C43.8302 57.3481 45.0141 55.6433 44.1808 55.27C41.7843 54.71 38.3071 53.138 36.2653 50.5497C37.2924 51.4746 38.4515 52.0637 39.1362 52.0678C40.2004 52.1383 40.254 50.9396 37.3089 47.6876C39.1156 49.3385 40.8026 49.8735 42.0813 49.8404C42.1803 49.8404 42.2752 49.8279 42.3701 49.8238C42.3948 49.8238 42.4196 49.8238 42.4443 49.8196C43.7106 49.6952 44.5108 48.6914 44.4861 48.708C44.8284 48.1148 44.2551 47.7913 43.7436 47.5963C40.8233 46.1985 38.336 43.6807 36.4592 41.2915L36.5458 41.3122C35.4734 39.9434 34.5948 38.6161 33.9513 37.5584C35.296 38.5622 36.3602 38.9811 36.9501 39.006C37.6801 39.0724 37.7791 38.5871 36.9336 37.8653C34.8217 36.1564 33.1016 32.7509 32.0498 30.2497C32.4788 30.5359 32.8335 30.6894 33.0727 30.6687C33.7451 30.706 33.6213 29.6151 31.7817 26.7364C33.1635 27.9974 34.3597 28.5989 34.9908 28.5449C35.5229 28.5408 35.7085 28.1301 35.3579 27.3171C35.1228 26.7696 34.7309 26.305 34.2978 25.8986C29.7193 21.6013 29.1624 16.6404 29.1335 16.3417C29.81 17.1423 30.602 17.7271 30.7298 17.7686C31.0598 17.8931 30.9278 17.2709 29.942 15.5453C31.3527 16.6528 32.5118 17.134 32.9242 17.0759C33.3326 17.0676 33.2295 16.6777 32.3055 15.9518C31.6538 15.4665 30.3834 14.0521 30.3957 14.0977C27.8177 10.8914 25.4418 5.61521 24.4148 3.18038C24.4354 3.18038 24.4601 3.16793 24.4808 3.16793C24.1425 2.36738 23.9487 1.87378 23.9487 1.87378C23.9404 1.91111 23.928 1.94844 23.9239 1.98577C23.895 1.91526 23.8827 1.87378 23.8827 1.87378C23.8125 2.21391 21.5398 12.5132 16.425 16.4952C15.2041 17.4451 15.5011 17.9843 16.3384 17.9304C16.953 17.9179 17.9058 17.5654 18.7968 16.8229C18.3431 17.835 18.4998 17.8101 18.1946 18.7807C16.7715 22.3355 14.5854 26.6244 13.1169 27.6324C12.1888 28.267 12.1558 28.7191 12.7127 28.7357C12.7333 28.7357 12.7622 28.7357 12.7869 28.7357C12.8199 28.7357 12.8488 28.7357 12.8859 28.7357C13.3603 28.7108 14.1729 28.4163 15.1876 27.7485C14.5936 29.6607 12.9643 33.9953 9.70984 36.5463C7.57318 38.2179 8.22078 38.894 9.60259 38.8318C9.76758 38.8318 9.94082 38.811 10.1264 38.7862C9.15711 41.026 6.73997 44.9334 1.41072 46.1487C-0.416566 46.6216 0.62701 48.2019 3.02352 48.0651C3.5185 48.0443 4.07535 47.9406 4.67757 47.7457C3.90623 48.0858 0.93637 49.4588 0.103159 50.7363L0.0990346 50.7156Z" fill="#447C2A"/>
<path d="M122.606 49.7407C122.907 50.2011 122.511 50.3712 121.723 50.3422C120.061 50.3048 116.501 49.3218 114.253 48.4175C114.67 48.8116 117.697 51.5617 121.203 52.1963C124.054 52.7148 121.954 54.6768 121.954 54.6768C121.278 55.6764 120.077 55.9419 118.939 55.9294C117.685 55.9294 116.505 55.5686 116.183 55.4649C117.685 57.5139 118.18 59.3846 116.922 59.2809C116.287 59.2644 115.16 58.6961 113.424 57.3065C114.249 59.2644 113.651 60.4963 112.595 60.5627C111.811 60.6498 110.759 60.0732 109.848 58.6546C109.802 60.0027 109.122 60.9028 108.194 60.9235C107.653 60.9609 107.018 60.6912 106.379 60.0234C105.649 61.0563 105.013 61.4005 104.485 61.3591C104.407 61.3591 104.333 61.3508 104.259 61.3342C104.584 63.3584 105.005 64.9138 105.607 66.1665C105.847 65.5111 106.218 64.8184 106.808 64.2045C106.808 64.2045 106.371 65.7766 106.193 67.1869C106.214 67.2201 106.234 67.2533 106.255 67.2823C106.494 66.3822 107.138 65.1503 108.829 64.1838C108.829 64.1838 106.787 65.7227 107.059 68.3607L107.146 68.3815C107.406 67.9252 108.425 66.432 110.627 66.3615C110.627 66.3615 107.86 67.6017 108.268 69.7379C108.268 69.7379 105.797 70.0946 103.405 69.377C102.126 69.1364 100.93 68.8461 100.427 68.7258C98.9046 68.3607 91.7934 70.2605 94.5571 68.7755C97.0897 67.415 97.6094 63.5782 97.8693 58.891C96.1864 60.3511 94.4333 61.0936 93.3939 61.0397C92.2472 61.0231 91.9048 60.1022 93.3114 58.2025C92.2265 58.891 90.7334 59.9322 89.7145 59.9612C89.0876 60.0068 88.6297 59.6916 88.5348 58.7168C86.9592 59.8326 85.8578 60.4133 85.301 60.3636C84.2945 60.3636 84.8143 58.6048 87.2273 54.5938C84.905 56.1493 82.9375 56.5931 81.4443 56.5018C78.8745 56.3733 77.6907 54.6685 78.5239 54.2951C80.9204 53.7352 84.3977 52.1631 86.4394 49.5748C85.4124 50.4998 84.2533 51.0888 83.5686 51.0929C82.5044 51.1635 82.4508 49.9647 85.3959 46.7127C83.5892 48.3636 81.9022 48.8987 80.6235 48.8655C80.5245 48.8655 80.4296 48.8531 80.3347 48.8489C80.31 48.8489 80.2852 48.8489 80.2605 48.8448C78.9942 48.7203 78.194 47.7165 78.2187 47.7331C77.8763 47.14 78.4497 46.8164 78.9612 46.6215C81.8815 45.2236 84.3688 42.7058 86.2456 40.3166L86.159 40.3374C87.2314 38.9686 88.11 37.6412 88.7535 36.5835C87.4088 37.5873 86.3446 38.0062 85.7547 38.0311C85.0246 38.0975 84.9256 37.6122 85.7712 36.8905C87.8831 35.1815 89.6032 31.7761 90.655 29.2749C90.226 29.5611 89.8713 29.7145 89.632 29.6938C88.9597 29.7311 89.0834 28.6402 90.9231 25.7616C89.5413 27.0225 88.3451 27.624 87.714 27.5701C87.1819 27.5659 86.9963 27.1553 87.3469 26.3423C87.582 25.7948 87.9739 25.3302 88.407 24.9237C92.9855 20.6264 93.5424 15.6655 93.5712 15.3669C92.8948 16.1674 92.1028 16.7523 91.9749 16.7938C91.6449 16.9182 91.7769 16.296 92.7628 14.5705C91.3521 15.678 90.193 16.1591 89.7805 16.1011C89.3722 16.0928 89.4753 15.7029 90.3993 14.977C91.051 14.4917 92.3214 13.0772 92.309 13.1229C94.887 9.91651 97.2629 4.64035 98.29 2.20552C98.2694 2.20552 98.2446 2.19308 98.224 2.19308C98.5623 1.39253 98.7561 0.898926 98.7561 0.898926C98.7644 0.936257 98.7767 0.973588 98.7809 1.01092C98.8097 0.940405 98.8221 0.898926 98.8221 0.898926C98.8922 1.23906 101.165 11.5383 106.28 15.5204C107.501 16.4702 107.204 17.0095 106.366 16.9555C105.752 16.9431 104.799 16.5905 103.908 15.848C104.362 16.8601 104.205 16.8352 104.51 17.8059C105.933 21.3606 108.119 25.6496 109.588 26.6575C110.516 27.2922 110.549 27.7443 109.992 27.7609C109.971 27.7609 109.943 27.7609 109.918 27.7609C109.885 27.7609 109.856 27.7609 109.819 27.7609C109.344 27.736 108.532 27.4415 107.517 26.7737C108.111 28.6859 109.74 33.0204 112.995 35.5714C115.132 37.243 114.484 37.9191 113.102 37.8569C112.937 37.8569 112.764 37.8362 112.578 37.8113C113.548 40.0512 115.965 43.9585 121.294 45.1739C123.121 45.6467 122.078 47.2271 119.681 47.0902C119.186 47.0695 118.629 46.9658 118.027 46.7708C118.799 47.1109 121.768 48.4839 122.602 49.7615L122.606 49.7407Z" fill="#447C2A"/>
<path d="M123.872 71.8865L0 69.8291L123.872 67.7717V71.8865Z" fill="#447C2A"/>
<path d="M95.9101 42.461L60.676 20.4189L10.5389 57.8705H15.0061L60.6801 23.8451L94.6644 45.1157L95.9101 42.461Z" fill="#447C2A"/>
<path d="M60.5398 39.1428H56.7573V45.8873H60.5398V39.1428Z" fill="#447C2A"/>
<path d="M60.5398 47.6377H56.7573V54.3822H60.5398V47.6377Z" fill="#447C2A"/>
<path d="M66.0588 39.1428H62.2764V45.8873H66.0588V39.1428Z" fill="#447C2A"/>
<path d="M66.0588 47.6377H62.2764V54.3822H66.0588V47.6377Z" fill="#447C2A"/>
<path d="M95.6295 48.181L95.0892 49.0521L60.713 27.4829L20.0424 57.8706H18.3636L60.6512 26.2344L95.6295 48.181Z" fill="#447C2A"/>
</g>
<defs>
<clipPath id="clip0_1_1179">
<rect width="388" height="71" fill="white" transform="translate(0 0.886475)"/>
</clipPath>
</defs>
</svg>
