<svg width="140" height="78" viewBox="0 0 140 78" fill="none" xmlns="http://www.w3.org/2000/svg">
<g clip-path="url(#clip0_1_1134)">
<path d="M-0.0263579 55.6683C-0.368293 56.1872 0.0819822 56.3726 0.972369 56.3422C2.85471 56.3018 6.88684 55.1965 9.43612 54.1821C8.96215 54.6236 5.53602 57.7071 1.56483 58.4181C-1.66155 58.9978 0.711684 61.2017 0.711684 61.2017C1.47681 62.3239 2.83778 62.6204 4.12427 62.6036C5.54618 62.6002 6.88006 62.2026 7.2457 62.0846C5.54618 64.3796 4.98418 66.479 6.41286 66.3611C7.13059 66.3442 8.41031 65.7073 10.3773 64.147C9.4395 66.3442 10.12 67.7225 11.3185 67.7967C12.2055 67.8944 13.4005 67.2474 14.4331 65.6568C14.4839 67.1699 15.2524 68.1808 16.3053 68.2011C16.9181 68.2449 17.6358 67.9382 18.3637 67.1901C19.1931 68.346 19.9075 68.7335 20.5101 68.6897C20.5981 68.6897 20.6861 68.683 20.7674 68.6628C20.3984 70.9341 19.9244 72.6763 19.2405 74.0816C18.9697 73.347 18.5499 72.5685 17.8829 71.881C17.8829 71.881 18.3772 73.6435 18.5804 75.2274C18.5567 75.2645 18.533 75.3015 18.5093 75.3352C18.2384 74.3276 17.5071 72.9426 15.591 71.8608C15.591 71.8608 17.9066 73.5862 17.5952 76.5417L17.497 76.5653C17.2025 76.053 16.048 74.3815 13.5529 74.3007C13.5529 74.3007 16.6912 75.6891 16.2274 78.0885C16.2274 78.0885 19.0272 78.4895 21.739 77.6841C23.188 77.4145 24.5422 77.0876 25.1144 76.9528C26.841 76.545 34.8951 78.6715 31.7601 77.0067C28.8926 75.4801 28.3035 71.1801 28.009 65.9264C29.915 67.5641 31.9023 68.3965 33.0804 68.3392C34.3771 68.319 34.7698 67.2878 33.1752 65.1546C34.4042 65.9297 36.0969 67.0924 37.248 67.1261C37.9589 67.1766 38.4769 66.8228 38.5853 65.7309C40.3694 66.9811 41.6187 67.6349 42.2484 67.5743C43.3859 67.5743 42.8002 65.5995 40.0647 61.104C42.6953 62.8462 44.9263 63.345 46.6123 63.2405C49.5238 63.099 50.8611 61.1848 49.9233 60.767C47.2115 60.1368 43.2708 58.3777 40.9585 55.4762C42.1231 56.5141 43.4367 57.1712 44.212 57.178C45.4172 57.2555 45.4781 55.9143 42.14 52.2646C44.1849 54.1147 46.0977 54.7146 47.5467 54.6809C47.6618 54.6809 47.7667 54.6674 47.8751 54.6606C47.9022 54.6606 47.9326 54.6573 47.9597 54.6539C49.3952 54.5157 50.2991 53.3902 50.272 53.407C50.6613 52.7431 50.0113 52.3792 49.4324 52.1635C46.1282 50.5931 43.308 47.7758 41.1819 45.0934L41.2801 45.117C40.0647 43.5836 39.0694 42.0941 38.3415 40.9079C39.865 42.0335 41.0702 42.5053 41.7372 42.5288C42.5666 42.603 42.6749 42.0604 41.7169 41.2483C39.3267 39.3341 37.3766 35.5126 36.1849 32.7122C36.6691 33.0324 37.0753 33.2042 37.3428 33.184C38.1045 33.2278 37.9623 32.0011 35.8836 28.7727C37.4511 30.1847 38.8053 30.8587 39.5197 30.8014C40.1189 30.7947 40.3322 30.333 39.9327 29.4231C39.6652 28.8098 39.2251 28.2908 38.7342 27.8325C33.551 23.0135 32.9179 17.4497 32.8841 17.1161C33.6492 18.0159 34.5464 18.6697 34.6953 18.7135C35.0677 18.8516 34.9188 18.1541 33.8049 16.2197C35.4029 17.4599 36.7131 18.0024 37.1803 17.935C37.6407 17.9283 37.5256 17.4902 36.4795 16.6747C35.7381 16.1321 34.3026 14.5415 34.3162 14.5954C31.3979 11.003 28.703 5.08205 27.5418 2.3524C27.5655 2.34903 27.5926 2.33555 27.6163 2.33892C27.2168 1.43915 26.9967 0.886475 26.9967 0.886475C26.9899 0.926914 26.9764 0.970723 26.9662 1.01116C26.9358 0.930284 26.9154 0.886475 26.9154 0.886475C26.8342 1.26728 24.2612 12.8161 18.4686 17.2812C17.0873 18.3461 17.4191 18.9527 18.3705 18.8921C19.0679 18.8752 20.1478 18.4809 21.1533 17.6486C20.6387 18.7842 20.8182 18.7539 20.4695 19.8458C18.858 23.8324 16.3832 28.6447 14.7175 29.7702C13.6646 30.4847 13.6308 30.9868 14.2605 31.007C14.2842 31.007 14.318 31.007 14.3417 31.007C14.3789 31.007 14.4128 31.007 14.4568 31.007C14.9951 30.9767 15.9126 30.6498 17.0636 29.8983C16.3933 32.045 14.5448 36.901 10.858 39.7621C8.4374 41.6358 9.16866 42.3941 10.7395 42.3267C10.9257 42.3233 11.1221 42.3031 11.332 42.2761C10.2317 44.7867 7.49622 49.171 1.45649 50.5291C-0.612048 51.0582 0.566106 52.8308 3.28128 52.6757C3.84327 52.6522 4.47297 52.5376 5.15346 52.3185C4.28 52.6993 0.914811 54.236 -0.0263579 55.6716V55.6683Z" fill="#447C2A"/>
<path d="M140.066 55.6683C140.408 56.1872 139.957 56.3726 139.067 56.3422C137.185 56.3018 133.152 55.1965 130.603 54.1821C131.077 54.6236 134.503 57.7071 138.474 58.4181C141.701 58.9978 139.328 61.2017 139.328 61.2017C138.562 62.3239 137.201 62.6204 135.915 62.6036C134.493 62.6002 133.159 62.2026 132.794 62.0846C134.493 64.3796 135.055 66.479 133.626 66.3611C132.909 66.3442 131.629 65.7073 129.662 64.147C130.6 66.3442 129.919 67.7225 128.721 67.7967C127.834 67.8944 126.639 67.2474 125.606 65.6568C125.555 67.1699 124.787 68.1808 123.734 68.2011C123.121 68.2449 122.403 67.9382 121.676 67.1901C120.846 68.346 120.132 68.7335 119.529 68.6897C119.441 68.6897 119.353 68.683 119.272 68.6628C119.641 70.9341 120.115 72.6763 120.799 74.0816C121.07 73.347 121.489 72.5685 122.156 71.881C122.156 71.881 121.662 73.6435 121.459 75.2274C121.483 75.2645 121.506 75.3015 121.53 75.3352C121.801 74.3276 122.532 72.9426 124.448 71.8608C124.448 71.8608 122.133 73.5862 122.444 76.5417L122.542 76.5653C122.837 76.053 123.991 74.3815 126.486 74.3007C126.486 74.3007 123.348 75.6891 123.812 78.0885C123.812 78.0885 121.012 78.4895 118.3 77.6841C116.851 77.4145 115.497 77.0876 114.925 76.9528C113.198 76.545 105.144 78.6715 108.279 77.0067C111.147 75.4801 111.736 71.1801 112.03 65.9264C110.124 67.5641 108.137 68.3965 106.959 68.3392C105.662 68.319 105.269 67.2878 106.864 65.1546C105.635 65.9297 103.942 67.0924 102.791 67.1261C102.08 67.1766 101.562 66.8228 101.454 65.7309C99.6698 66.9811 98.4206 67.6349 97.7909 67.5743C96.6533 67.5743 97.239 65.5995 99.9745 61.104C97.344 62.8462 95.1129 63.345 93.427 63.2405C90.5154 63.099 89.1782 61.1848 90.1159 60.767C92.8277 60.1368 96.7684 58.3777 99.0807 55.4762C97.9161 56.5141 96.6026 57.1712 95.8273 57.178C94.622 57.2555 94.5611 55.9143 97.8992 52.2646C95.8544 54.1147 93.9416 54.7146 92.4926 54.6809C92.3775 54.6809 92.2725 54.6674 92.1642 54.6606C92.1371 54.6606 92.1066 54.6573 92.0795 54.6539C90.6441 54.5157 89.7401 53.3902 89.7672 53.407C89.3779 52.7431 90.0279 52.3792 90.6068 52.1635C93.9111 50.5931 96.7312 47.7758 98.8573 45.0934L98.7591 45.117C99.9745 43.5836 100.97 42.0941 101.698 40.9079C100.174 42.0335 98.969 42.5053 98.3021 42.5288C97.4726 42.603 97.3643 42.0604 98.3224 41.2483C100.713 39.3341 102.663 35.5126 103.854 32.7122C103.37 33.0324 102.964 33.2042 102.696 33.184C101.935 33.2278 102.077 32.0011 104.156 28.7727C102.588 30.1847 101.234 30.8587 100.52 30.8014C99.9203 30.7947 99.7071 30.333 100.107 29.4231C100.374 28.8098 100.814 28.2908 101.305 27.8325C106.488 23.0135 107.121 17.4497 107.155 17.1161C106.39 18.0159 105.493 18.6697 105.344 18.7135C104.972 18.8516 105.12 18.1541 106.234 16.2197C104.636 17.4599 103.326 18.0024 102.859 17.935C102.399 17.9283 102.514 17.4902 103.56 16.6747C104.301 16.1321 105.737 14.5415 105.723 14.5954C108.641 11.003 111.336 5.08205 112.497 2.3524C112.474 2.34903 112.447 2.33555 112.423 2.33892C112.806 1.44252 113.022 0.886475 113.022 0.886475C113.029 0.926914 113.043 0.970723 113.053 1.01116C113.103 0.930284 113.124 0.886475 113.124 0.886475C113.205 1.26728 115.778 12.8161 121.571 17.2812C122.952 18.3461 122.62 18.9527 121.669 18.8921C120.971 18.8752 119.891 18.4809 118.886 17.6486C119.401 18.7842 119.221 18.7539 119.57 19.8458C121.181 23.8324 123.656 28.6447 125.322 29.7702C126.375 30.4847 126.408 30.9868 125.779 31.007C125.755 31.007 125.721 31.007 125.698 31.007C125.66 31.007 125.626 31.007 125.582 31.007C125.044 30.9767 124.127 30.6498 122.976 29.8983C123.646 32.045 125.494 36.901 129.181 39.7621C131.602 41.6358 130.871 42.3941 129.3 42.3267C129.114 42.3233 128.917 42.3031 128.707 42.2761C129.808 44.7867 132.543 49.171 138.583 50.5291C140.651 51.0582 139.473 52.8308 136.758 52.6757C136.196 52.6522 135.566 52.5376 134.886 52.3185C135.759 52.6993 139.124 54.236 140.066 55.6716V55.6683Z" fill="#447C2A"/>
<path d="M109.506 45.2484L69.5911 20.5332L12.7993 62.5294H17.8573L69.5978 24.3749L108.094 48.224L109.506 45.2484Z" fill="#447C2A"/>
<path d="M68.4353 41.5314H64.1526V49.0935H68.4353V41.5314Z" fill="#447C2A"/>
<path d="M68.4353 51.0548H64.1526V58.617H68.4353V51.0548Z" fill="#447C2A"/>
<path d="M74.6883 41.5314H70.4056V49.0935H74.6883V41.5314Z" fill="#447C2A"/>
<path d="M74.6883 51.0548H70.4056V58.617H74.6883V51.0548Z" fill="#447C2A"/>
<path d="M109.188 51.6614L108.575 52.6387L69.6349 28.456L23.5616 62.5295H21.6624L69.5672 27.0575L109.188 51.6614Z" fill="#447C2A"/>
</g>
<defs>
<clipPath id="clip0_1_1134">
<rect width="140" height="77" fill="white" transform="translate(0 0.886475)"/>
</clipPath>
</defs>
</svg>
